<svg xmlns="http://www.w3.org/2000/svg" viewBox="0 0 256 256" role="img" aria-label="Accesstage">
  <rect width="256" height="256" rx="20" fill="#ffffff"/>
  <g font-family="Arial Rounded MT Bold, Arial, sans-serif" font-weight="700" letter-spacing="-6">
    <text x="36" y="120" font-size="68" fill="#4b1f5f">acce</text>
    <text x="164" y="120" font-size="68" fill="#ee5b2f">s</text>
    <text x="31" y="178" font-size="68" fill="#ee5b2f">s</text>
    <text x="69" y="178" font-size="68" fill="#4b1f5f">tage</text>
  </g>
  <path d="M168 76h23c7 0 12 5 12 12v6h-31c-4 0-7 3-7 7s3 7 7 7h18c12 0 21 9 21 21s-9 21-21 21h-28v-18h28c3 0 6-3 6-6s-3-6-6-6h-18c-13 0-23-10-23-23s8-21 19-21z" fill="#ee5b2f" opacity="0.96"/>
</svg>
